<svg width="240" height="240" viewBox="0 0 240 240" fill="none" xmlns="http://www.w3.org/2000/svg">
  <rect width="240" height="240" fill="transparent"/>
  <circle cx="120" cy="120" r="90" fill="#EEF2FF"/>
  <circle cx="63" cy="120" r="25" fill="#C7D2FE"/>
  <circle cx="177" cy="120" r="25" fill="#C7D2FE"/>
  <circle cx="120" cy="63" r="25" fill="#C7D2FE"/>
  <circle cx="120" cy="177" r="25" fill="#C7D2FE"/>
  <circle cx="120" cy="120" r="40" fill="#E0E7FF" stroke="#4F46E5" stroke-width="2"/>
  <path d="M100 110H140" stroke="#4F46E5" stroke-width="2"/>
  <path d="M100 120H130" stroke="#4F46E5" stroke-width="2"/>
  <path d="M100 130H135" stroke="#4F46E5" stroke-width="2"/>
  <circle cx="85" cy="85" r="15" fill="#C7D2FE"/>
  <circle cx="155" cy="85" r="15" fill="#C7D2FE"/>
  <circle cx="85" cy="155" r="15" fill="#C7D2FE"/>
  <circle cx="155" cy="155" r="15" fill="#C7D2FE"/>
  <line x1="144.393" y1="144.393" x2="132.322" y2="132.322" stroke="#4F46E5" stroke-width="2"/>
  <line x1="144.393" y1="95.6066" x2="132.322" y2="107.678" stroke="#4F46E5" stroke-width="2"/>
  <line x1="95.6066" y1="144.393" x2="107.678" y2="132.322" stroke="#4F46E5" stroke-width="2"/>
  <line x1="95.6066" y1="95.6066" x2="107.678" y2="107.678" stroke="#4F46E5" stroke-width="2"/>
  <line x1="63" y1="105" x2="77" y2="105" stroke="#4F46E5" stroke-width="2"/>
  <line x1="63" y1="135" x2="77" y2="135" stroke="#4F46E5" stroke-width="2"/>
  <line x1="49" y1="120" x2="77" y2="120" stroke="#4F46E5" stroke-width="2"/>
  <line x1="177" y1="105" x2="163" y2="105" stroke="#4F46E5" stroke-width="2"/>
  <line x1="177" y1="135" x2="163" y2="135" stroke="#4F46E5" stroke-width="2"/>
  <line x1="191" y1="120" x2="163" y2="120" stroke="#4F46E5" stroke-width="2"/>
  <line x1="105" y1="63" x2="105" y2="77" stroke="#4F46E5" stroke-width="2"/>
  <line x1="135" y1="63" x2="135" y2="77" stroke="#4F46E5" stroke-width="2"/>
  <line x1="120" y1="49" x2="120" y2="77" stroke="#4F46E5" stroke-width="2"/>
  <line x1="105" y1="177" x2="105" y2="163" stroke="#4F46E5" stroke-width="2"/>
  <line x1="135" y1="177" x2="135" y2="163" stroke="#4F46E5" stroke-width="2"/>
  <line x1="120" y1="191" x2="120" y2="163" stroke="#4F46E5" stroke-width="2"/>
  <path d="M85 85L95 85" stroke="#4F46E5" stroke-width="2"/>
  <path d="M85 85L85 95" stroke="#4F46E5" stroke-width="2"/>
  <path d="M155 85L145 85" stroke="#4F46E5" stroke-width="2"/>
  <path d="M155 85L155 95" stroke="#4F46E5" stroke-width="2"/>
  <path d="M85 155L95 155" stroke="#4F46E5" stroke-width="2"/>
  <path d="M85 155L85 145" stroke="#4F46E5" stroke-width="2"/>
  <path d="M155 155L145 155" stroke="#4F46E5" stroke-width="2"/>
  <path d="M155 155L155 145" stroke="#4F46E5" stroke-width="2"/>
</svg> 