<svg width="240" height="240" viewBox="0 0 240 240" fill="none" xmlns="http://www.w3.org/2000/svg">
  <rect width="240" height="240" fill="transparent"/>
  <circle cx="120" cy="120" r="80" fill="#EEF2FF"/>
  <circle cx="120" cy="120" r="60" fill="#E0E7FF"/>
  <path d="M120 180C153.137 180 180 153.137 180 120C180 86.8629 153.137 60 120 60C86.8629 60 60 86.8629 60 120C60 153.137 86.8629 180 120 180Z" stroke="#4F46E5" stroke-width="2" stroke-dasharray="4 4"/>
  <rect x="90" y="90" width="60" height="80" rx="4" fill="white" stroke="#4F46E5" stroke-width="2"/>
  <path d="M100 110H140" stroke="#4F46E5" stroke-width="2"/>
  <path d="M100 120H130" stroke="#4F46E5" stroke-width="2"/>
  <path d="M100 130H135" stroke="#4F46E5" stroke-width="2"/>
  <path d="M100 140H125" stroke="#4F46E5" stroke-width="2"/>
  <path d="M100 150H140" stroke="#4F46E5" stroke-width="2"/>
  <rect x="100" y="80" width="40" height="20" rx="4" fill="#4F46E5"/>
  <path d="M110 90H130" stroke="white" stroke-width="2"/>
  <path d="M165 90L165 113" stroke="#4F46E5" stroke-width="2"/>
  <path d="M165 90L175 100" stroke="#4F46E5" stroke-width="2"/>
  <path d="M165 90L155 100" stroke="#4F46E5" stroke-width="2"/>
  <path d="M75 150L75 127" stroke="#4F46E5" stroke-width="2"/>
  <path d="M75 150L85 140" stroke="#4F46E5" stroke-width="2"/>
  <path d="M75 150L65 140" stroke="#4F46E5" stroke-width="2"/>
  <circle cx="165" cy="120" r="10" fill="#C7D2FE" stroke="#4F46E5" stroke-width="2"/>
  <circle cx="75" cy="120" r="10" fill="#C7D2FE" stroke="#4F46E5" stroke-width="2"/>
  <path d="M120 55V45" stroke="#4F46E5" stroke-width="2"/>
  <path d="M120 55L125 50" stroke="#4F46E5" stroke-width="2"/>
  <path d="M120 55L115 50" stroke="#4F46E5" stroke-width="2"/>
  <path d="M120 185V195" stroke="#4F46E5" stroke-width="2"/>
  <path d="M120 185L125 190" stroke="#4F46E5" stroke-width="2"/>
  <path d="M120 185L115 190" stroke="#4F46E5" stroke-width="2"/>
  <circle cx="120" cy="35" r="10" fill="#C7D2FE" stroke="#4F46E5" stroke-width="2"/>
  <circle cx="120" cy="205" r="10" fill="#C7D2FE" stroke="#4F46E5" stroke-width="2"/>
</svg> 