<svg width="240" height="240" viewBox="0 0 240 240" fill="none" xmlns="http://www.w3.org/2000/svg">
  <rect width="240" height="240" fill="transparent"/>
  <circle cx="120" cy="120" r="80" fill="#EEF2FF"/>
  <circle cx="120" cy="120" r="70" fill="#E0E7FF" stroke="#4F46E5" stroke-width="2" stroke-dasharray="4 4"/>
  <circle cx="120" cy="120" r="60" fill="white" stroke="#4F46E5" stroke-width="2"/>
  <path d="M120 70L120 120L154 143" stroke="#4F46E5" stroke-width="4" stroke-linecap="round"/>
  <circle cx="120" cy="120" r="5" fill="#4F46E5"/>
  <path d="M120 180C153.137 180 180 153.137 180 120C180 86.8629 153.137 60 120 60C86.8629 60 60 86.8629 60 120C60 153.137 86.8629 180 120 180Z" stroke="#4F46E5" stroke-width="2"/>
  <path d="M120 60L120 70" stroke="#4F46E5" stroke-width="2"/>
  <path d="M180 120L170 120" stroke="#4F46E5" stroke-width="2"/>
  <path d="M120 180L120 170" stroke="#4F46E5" stroke-width="2"/>
  <path d="M60 120L70.0001 120" stroke="#4F46E5" stroke-width="2"/>
  <line x1="170.142" y1="70.1421" x2="160.142" y2="80.1421" stroke="#4F46E5" stroke-width="2"/>
  <line x1="170.142" y1="169.858" x2="160.142" y2="159.858" stroke="#4F46E5" stroke-width="2"/>
  <line x1="70.1421" y1="169.858" x2="80.1421" y2="159.858" stroke="#4F46E5" stroke-width="2"/>
  <line x1="70.1421" y1="70.1421" x2="80.1421" y2="80.1421" stroke="#4F46E5" stroke-width="2"/>
  <path d="M102 85H138" stroke="#4F46E5" stroke-width="2"/>
  <path d="M101 95H127" stroke="#4F46E5" stroke-width="2"/>
  <circle cx="187" cy="80" r="8" fill="#C7D2FE"/>
  <circle cx="53" cy="160" r="8" fill="#C7D2FE"/>
  <circle cx="53" cy="80" r="8" fill="#C7D2FE"/>
  <circle cx="180" cy="187" r="8" fill="#C7D2FE"/>
  <path d="M120 40C120 40 140 30 160 40" stroke="#4F46E5" stroke-width="2" stroke-linecap="round"/>
  <path d="M120 40C120 40 100 30 80 40" stroke="#4F46E5" stroke-width="2" stroke-linecap="round"/>
  <path d="M120 200C120 200 140 210 160 200" stroke="#4F46E5" stroke-width="2" stroke-linecap="round"/>
  <path d="M120 200C120 200 100 210 80 200" stroke="#4F46E5" stroke-width="2" stroke-linecap="round"/>
  <circle cx="120" cy="204" r="4" fill="#4F46E5"/>
  <circle cx="120" cy="36" r="4" fill="#4F46E5"/>
  <circle cx="120" cy="36" r="10" fill="#C7D2FE" stroke="#4F46E5" stroke-width="2"/>
  <circle cx="120" cy="204" r="10" fill="#C7D2FE" stroke="#4F46E5" stroke-width="2"/>
</svg> 